name Walk6.mot
datacolumns 19
datarows 15
range 1.19500000 1.26500000
endheader

                time	   L_ground_force_vx	   L_ground_force_vy	   L_ground_force_vz	   L_ground_force_px	   L_ground_force_py	   L_ground_force_pz	   R_ground_force_vx	   R_ground_force_vy	   R_ground_force_vz	   R_ground_force_px	   R_ground_force_py	   R_ground_force_pz	   L_ground_torque_x	   L_ground_torque_y	   L_ground_torque_z	   R_ground_torque_x	   R_ground_torque_y	   R_ground_torque_z	
          1.19500000	         -3.25702677	         60.87756895	         -5.39992159	          0.00090157	          0.00000000	          0.00093033	         -0.00000000	          0.00000000	         -0.00000000	          0.00000000	          0.00000000	          0.00000000	          0.00000000	          0.01733636	          0.00000000	          0.00000000	          0.00000000	          0.00000000	
          1.20000000	         -6.13808575	         88.61375604	         -7.17080557	         -0.09830837	          0.00000000	         -0.00794646	         -0.00000000	          0.00000000	         -0.00000000	          0.00000000	          0.00000000	         -0.00000000	          0.00000000	          0.02577626	          0.00000000	          0.00000000	          0.00000000	          0.00000000	
          1.20500000	         -9.51795157	        119.50217011	         -9.02131552	         -0.19110539	          0.00000000	         -0.01633540	         -0.00000000	          0.00000000	         -0.00000000	         -0.00000000	          0.00000000	         -0.00000000	          0.00000000	          0.03999315	          0.00000000	          0.00000000	          0.00000000	          0.00000000	
          1.21000000	        -13.34517313	        151.91075648	        -10.77617401	         -0.27243417	          0.00000000	         -0.02382358	         -0.00000000	         -0.00000000	         -0.00000000	         -0.00000000	          0.00000000	         -0.00000000	          0.00000000	          0.06060221	          0.00000000	          0.00000000	          0.00000000	          0.00000000	
          1.21500000	        -17.57930176	        184.03860855	        -12.20129018	         -0.33974688	          0.00000000	         -0.03022030	         -0.00000000	         -0.00000001	         -0.00000000	         -0.00000000	          0.00000000	         -0.00000000	          0.00000000	          0.08775929	          0.00000000	          0.00000000	          0.00000000	          0.00000000	
          1.22000000	        -22.19173208	        214.74978846	        -13.05520204	         -0.39250686	          0.00000000	         -0.03550555	         -0.00000000	         -0.00000001	         -0.00000000	         -0.00000000	          0.00000000	         -0.00000000	          0.00000000	          0.12127955	          0.00000000	          0.00000000	         -0.00000000	          0.00000000	
          1.22500000	        -27.12336085	        243.61783307	        -13.15784045	         -0.43151583	          0.00000000	         -0.03976352	          0.00000000	         -0.00000002	         -0.00000000	         -0.00000000	          0.00000000	         -0.00000000	          0.00000000	          0.16044165	          0.00000000	          0.00000000	         -0.00000000	          0.00000000	
          1.23000000	        -32.26879447	        270.49398825	        -12.42364546	         -0.45837797	          0.00000000	         -0.04312533	          0.00000000	         -0.00000003	         -0.00000000	         -0.00000000	          0.00000000	         -0.00000000	          0.00000000	          0.20381295	          0.00000000	          0.00000000	         -0.00000000	          0.00000000	
          1.23500000	        -37.48072876	        295.34268151	        -10.86915925	         -0.47509145	          0.00000000	         -0.04573447	          0.00000000	         -0.00000004	         -0.00000000	         -0.00000000	          0.00000000	         -0.00000000	          0.00000000	          0.24934434	          0.00000000	          0.00000000	         -0.00000000	          0.00000000	
          1.24000000	        -42.59893100	        318.29114313	         -8.61048143	         -0.48375203	          0.00000000	         -0.04772990	          0.00000000	         -0.00000005	         -0.00000000	         -0.00000000	          0.00000000	         -0.00000000	          0.00000000	          0.29593291	          0.00000000	          0.00000000	         -0.00000000	          0.00000000	
          1.24500000	        -47.49949544	        339.66682767	         -5.83151861	         -0.48634799	          0.00000000	         -0.04923762	          0.00000001	         -0.00000006	         -0.00000000	         -0.00000000	          0.00000000	         -0.00000000	          0.00000000	          0.34476922	          0.00000000	          0.00000000	         -0.00000000	          0.00000000	
          1.25000000	        -52.13085887	        359.92750872	         -2.72862329	         -0.48464235	          0.00000000	         -0.05036439	          0.00000001	         -0.00000007	         -0.00000000	         -0.00000000	          0.00000000	         -0.00000000	          0.00000000	          0.39887000	          0.00000000	          0.00000000	         -0.00000000	          0.00000000	
          1.25500000	        -56.51192392	        379.55996640	          0.52376958	         -0.48011585	          0.00000000	         -0.05119624	          0.00000001	         -0.00000007	         -0.00000000	         -0.00000000	          0.00000000	         -0.00000000	          0.00000000	          0.46139297	          0.00000000	          0.00000000	         -0.00000000	          0.00000000	
          1.26000000	        -60.69612637	        399.01351727	          3.77760009	         -0.47395185	          0.00000000	         -0.05180140	          0.00000001	         -0.00000007	          0.00000000	         -0.00000000	          0.00000000	         -0.00000000	          0.00000000	          0.53459928	          0.00000000	          0.00000000	         -0.00000000	          0.00000000	
          1.26500000	        -64.72132227	        418.64985816	          6.90604005	         -0.46705473	          0.00000000	         -0.05223044	          0.00000001	         -0.00000006	          0.00000000	         -0.00000000	          0.00000000	         -0.00000000	          0.00000000	          0.61988775	          0.00000000	          0.00000000	         -0.00000000	          0.00000000	
